<svg xmlns="http://www.w3.org/2000/svg" width="96.0" height="96.0" viewBox="0.0 0.0 96.0 96.0"><svg x="0.0" y="-0.0" width="96.0" height="96.0" xmlns="http://www.w3.org/2000/svg" viewBox="0 0 96.0 96.0"><defs>
  <linearGradient id="wax" x1="0" y1="0" x2="1" y2="0">
    <stop offset="0" stop-color="#C7B89E"/>
    <stop offset="0.32" stop-color="#F2E8D4"/>
    <stop offset="1" stop-color="#C7B89E"/>
  </linearGradient>
</defs><path d="M48.0 44.52 v10.0" stroke="#4A3B29"
      stroke-width="3.4" stroke-linecap="round"/>
<path d="M33.0 50.52
L63.0 50.52
C 61.5 61.903200000000005, 58.5 67.92960000000001, 58.5 71.2776
C 58.5 79.9824, 61.0 83.0, 61.0 84.0
L35.0 84.0
C 35.0 83.0, 37.5 79.9824, 37.5 71.2776
C 37.5 67.92960000000001, 34.5 61.903200000000005, 33.0 50.52 Z" fill="url(#wax)"/>
<ellipse cx="48.0" cy="51.52" rx="13.0" ry="2.6"
         fill="#C7B89E" opacity="0.9"/>
<path d="M48.0 45.52 v4" stroke="#4A3B29"
      stroke-width="3.4" stroke-linecap="round"/>
<path d="M34.5 55.52 q-3 9.1 1 13.0 q4 -4 1 -13.0 z" fill="#C7B89E" opacity="0.95"/><path d="M30 84.0 q18 -9 36 0 z" fill="#C7B89E"/>
<path d="M26 86.0 h44" stroke="#AB8A54" stroke-width="5" stroke-linecap="round"/></svg><svg x="23.0" y="2.520000000000003" width="50.0" height="50.0" xmlns="http://www.w3.org/2000/svg" viewBox="0 0 50.0 50.0">
<defs><filter id="glow-flame" x="-80%" y="-80%" width="260%" height="260%">
<feGaussianBlur stdDeviation="3.6"/></filter></defs>
<path d="M25.0 45.0
C 14.4848 44.362304, 8.04 39.89843200000001, 8.04 35.434560000000005
C 8.04 27.144512000000002, 19.912 19.492160000000005, 25.0 11.202112000000005
C 30.088 19.492160000000005, 41.96 27.144512000000002, 41.96 35.434560000000005
C 41.96 39.89843200000001, 35.5152 44.362304, 25.0 45.0 Z" fill="#FAB756" opacity="0.4" filter="url(#glow-flame)"/>
<path d="M25.0 45.0
C 16.58784 44.362304, 11.432 39.89843200000001, 11.432 35.434560000000005
C 11.432 27.144512000000002, 20.9296 19.492160000000005, 25.0 13.115200000000005
C 29.0704 19.492160000000005, 38.568 27.144512000000002, 38.568 35.434560000000005
C 38.568 39.89843200000001, 33.41216 44.362304, 25.0 45.0 Z" fill="#FAB756"/>
<path d="M25.0 45.0
C 21.1304064 44.362304, 18.75872 39.89843200000001, 18.75872 35.434560000000005
C 18.75872 27.144512000000002, 23.127616 19.492160000000005, 25.0 26.506816
C 26.872384 19.492160000000005, 31.24128 27.144512000000002, 31.24128 35.434560000000005
C 31.24128 39.89843200000001, 28.8695936 44.362304, 25.0 45.0 Z" fill="#FFF5D9" opacity="0.9"/>
</svg></svg>
